<svg width="302" height="103" viewBox="0 0 302 103" fill="none" xmlns="http://www.w3.org/2000/svg">
<path d="M46.6534 28.68C46.6534 30.8933 46.4001 32.9067 45.8934 34.72C45.3868 36.5067 44.6134 38.0533 43.5734 39.36C42.5334 40.6667 41.1868 41.6667 39.5334 42.36C37.9068 43.0533 35.9734 43.4 33.7334 43.4C31.5201 43.4 29.6001 43.0533 27.9734 42.36C26.3468 41.64 25.0001 40.64 23.9334 39.36C22.8934 38.0533 22.1068 36.4933 21.5734 34.68C21.0668 32.8667 20.8134 30.8533 20.8134 28.64C20.8134 25.68 21.2668 23.1067 22.1734 20.92C23.1068 18.7333 24.5334 17.04 26.4534 15.84C28.3734 14.6133 30.8134 14 33.7734 14C36.7601 14 39.2001 14.6133 41.0934 15.84C42.9868 17.04 44.3868 18.7467 45.2934 20.96C46.2001 23.1467 46.6534 25.72 46.6534 28.68ZM27.6134 28.68C27.6134 30.68 27.8134 32.4 28.2134 33.84C28.6401 35.28 29.3068 36.3867 30.2134 37.16C31.1201 37.9333 32.2934 38.32 33.7334 38.32C35.2001 38.32 36.3734 37.9333 37.2534 37.16C38.1601 36.3867 38.8134 35.28 39.2134 33.84C39.6401 32.4 39.8534 30.68 39.8534 28.68C39.8534 25.6667 39.3734 23.3067 38.4134 21.6C37.4801 19.8933 35.9334 19.04 33.7734 19.04C32.3068 19.04 31.1201 19.4267 30.2134 20.2C29.3068 20.9733 28.6401 22.08 28.2134 23.52C27.8134 24.96 27.6134 26.68 27.6134 28.68ZM63.4144 43L57.4544 20.6H57.2944C57.321 21.1333 57.361 21.9333 57.4144 23C57.4677 24.0667 57.521 25.2133 57.5744 26.44C57.6277 27.64 57.6544 28.7333 57.6544 29.72V43H51.8944V14.44H60.6144L66.5744 36.28H66.6944L72.8144 14.44H81.5344V43H75.5344V29.48C75.5344 28.5733 75.5477 27.5333 75.5744 26.36C75.601 25.1867 75.641 24.08 75.6944 23.04C75.7477 21.9733 75.7877 21.1733 75.8144 20.64H75.6544L69.4944 43H63.4144ZM104.311 43L102.671 36.2H93.4309L91.7509 43H84.7109L93.8309 14.32H102.151L111.311 43H104.311ZM99.3909 24.48C99.2309 23.92 99.0709 23.3333 98.9109 22.72C98.7509 22.1067 98.5909 21.4667 98.4309 20.8C98.2976 20.1333 98.1643 19.4533 98.0309 18.76C97.9243 19.4533 97.7909 20.1467 97.6309 20.84C97.4709 21.5067 97.3109 22.1467 97.1509 22.76C97.0176 23.3733 96.8709 23.9467 96.7109 24.48L94.8709 31.12H101.271L99.3909 24.48ZM122.793 14.44C125.219 14.44 127.233 14.76 128.833 15.4C130.433 16.0133 131.619 16.96 132.393 18.24C133.193 19.4933 133.593 21.08 133.593 23C133.593 24.3067 133.379 25.4533 132.953 26.44C132.553 27.4 131.993 28.2267 131.273 28.92C130.553 29.5867 129.739 30.1333 128.833 30.56L136.673 43H129.433L123.393 32.04H120.953V43H114.473V14.44H122.793ZM122.513 19.4H120.953V27.12H122.553C123.539 27.12 124.366 26.9733 125.033 26.68C125.699 26.3867 126.206 25.9467 126.553 25.36C126.899 24.7467 127.073 24.0133 127.073 23.16C127.073 22.2533 126.913 21.5333 126.593 21C126.273 20.44 125.779 20.04 125.113 19.8C124.446 19.5333 123.579 19.4 122.513 19.4ZM171.595 43H164.275L158.115 30.96L155.835 32.8V43H149.355V14.44H155.835V27.52C156.182 26.96 156.542 26.4 156.915 25.84C157.315 25.28 157.702 24.72 158.075 24.16L164.515 14.44H171.635L162.755 27.08L171.595 43ZM197.266 43H190.746V30.68H181.226V43H174.746V14.44H181.226V25.64H190.746V14.44H197.266V43ZM228.294 28.68C228.294 30.8933 228.041 32.9067 227.534 34.72C227.027 36.5067 226.254 38.0533 225.214 39.36C224.174 40.6667 222.827 41.6667 221.174 42.36C219.547 43.0533 217.614 43.4 215.374 43.4C213.161 43.4 211.241 43.0533 209.614 42.36C207.987 41.64 206.641 40.64 205.574 39.36C204.534 38.0533 203.747 36.4933 203.214 34.68C202.707 32.8667 202.454 30.8533 202.454 28.64C202.454 25.68 202.907 23.1067 203.814 20.92C204.747 18.7333 206.174 17.04 208.094 15.84C210.014 14.6133 212.454 14 215.414 14C218.401 14 220.841 14.6133 222.734 15.84C224.627 17.04 226.027 18.7467 226.934 20.96C227.841 23.1467 228.294 25.72 228.294 28.68ZM209.254 28.68C209.254 30.68 209.454 32.4 209.854 33.84C210.281 35.28 210.947 36.3867 211.854 37.16C212.761 37.9333 213.934 38.32 215.374 38.32C216.841 38.32 218.014 37.9333 218.894 37.16C219.801 36.3867 220.454 35.28 220.854 33.84C221.281 32.4 221.494 30.68 221.494 28.68C221.494 25.6667 221.014 23.3067 220.054 21.6C219.121 19.8933 217.574 19.04 215.414 19.04C213.947 19.04 212.761 19.4267 211.854 20.2C210.947 20.9733 210.281 22.08 209.854 23.52C209.454 24.96 209.254 26.68 209.254 28.68ZM256.055 28.44C256.055 31.64 255.468 34.32 254.295 36.48C253.148 38.64 251.495 40.2667 249.335 41.36C247.202 42.4533 244.642 43 241.655 43H233.535V14.44H242.375C245.228 14.44 247.668 14.9733 249.695 16.04C251.748 17.1067 253.322 18.68 254.415 20.76C255.508 22.8133 256.055 25.3733 256.055 28.44ZM249.335 28.6C249.335 26.4933 249.082 24.76 248.575 23.4C248.068 22.04 247.308 21.04 246.295 20.4C245.308 19.7333 244.068 19.4 242.575 19.4H240.015V38H242.015C244.522 38 246.362 37.2133 247.535 35.64C248.735 34.0667 249.335 31.72 249.335 28.6ZM269.589 14.44C272.016 14.44 274.029 14.76 275.629 15.4C277.229 16.0133 278.416 16.96 279.189 18.24C279.989 19.4933 280.389 21.08 280.389 23C280.389 24.3067 280.176 25.4533 279.749 26.44C279.349 27.4 278.789 28.2267 278.069 28.92C277.349 29.5867 276.536 30.1333 275.629 30.56L283.469 43H276.229L270.189 32.04H267.749V43H261.269V14.44H269.589ZM269.309 19.4H267.749V27.12H269.349C270.336 27.12 271.163 26.9733 271.829 26.68C272.496 26.3867 273.003 25.9467 273.349 25.36C273.696 24.7467 273.869 24.0133 273.869 23.16C273.869 22.2533 273.709 21.5333 273.389 21C273.069 20.44 272.576 20.04 271.909 19.8C271.243 19.5333 270.376 19.4 269.309 19.4Z" fill="url(#paint0_linear_5_33)"/>
<path d="M72.4798 89.24L70.4398 84.28C71.8532 83.8 73.1465 83.24 74.3198 82.6C75.5198 81.96 76.5598 81.2533 77.4398 80.48C78.3198 79.7067 78.9998 78.8667 79.4798 77.96C79.9598 77.0267 80.1998 76.0267 80.1998 74.96C80.1998 73.84 79.9465 72.6133 79.4398 71.28C78.9332 69.9467 78.3198 68.5867 77.5998 67.2L82.8398 64.68C83.3198 65.5067 83.7332 66.4 84.0798 67.36C84.4532 68.2933 84.7598 69.1333 84.9998 69.88C85.2398 70.6267 85.3998 71.1333 85.4798 71.4C85.8532 72.68 86.3598 73.5333 86.9998 73.96C87.6665 74.3867 88.7332 74.6 90.1998 74.6C91.2132 74.6 91.9332 74.8667 92.3598 75.4C92.8132 75.9067 93.0398 76.5467 93.0398 77.32C93.0398 78.1467 92.7598 78.84 92.1998 79.4C91.6398 79.9333 90.8398 80.2 89.7998 80.2C88.7065 80.2 87.7465 80.04 86.9198 79.72C86.0932 79.4 85.4265 78.9333 84.9198 78.32C84.4398 77.7067 84.1332 76.9867 83.9998 76.16L85.4798 77C85.3198 78.4133 84.8532 79.7467 84.0798 81C83.3332 82.28 82.3598 83.4533 81.1598 84.52C79.9598 85.5867 78.6132 86.52 77.1198 87.32C75.6265 88.12 74.0798 88.76 72.4798 89.24ZM129.968 80.2C128.608 80.2 127.301 80.08 126.048 79.84C124.794 79.5733 123.661 79.2267 122.648 78.8C121.661 78.3733 120.848 77.8933 120.208 77.36L123.808 73.48C124.768 73.88 125.754 74.1733 126.768 74.36C127.781 74.52 128.981 74.6 130.368 74.6C131.381 74.6 132.101 74.8667 132.528 75.4C132.981 75.9067 133.208 76.5467 133.208 77.32C133.208 78.1467 132.928 78.84 132.368 79.4C131.808 79.9333 131.008 80.2 129.968 80.2ZM110.568 80.72C108.088 80.72 106.021 80.6133 104.368 80.4C102.741 80.1867 101.421 79.88 100.408 79.48C99.3943 79.08 98.5943 78.6 98.0077 78.04C97.421 77.48 96.941 76.8667 96.5677 76.2L97.6877 75.88C97.021 77.16 96.261 78.1067 95.4077 78.72C94.5543 79.3333 93.661 79.7333 92.7277 79.92C91.7943 80.1067 90.8343 80.2 89.8477 80.2L90.2477 74.6C91.0743 74.6 91.7277 74.4667 92.2077 74.2C92.6877 73.9333 93.0743 73.4933 93.3677 72.88C93.6877 72.2667 93.981 71.4533 94.2477 70.44C94.5143 69.4267 94.8343 68.1867 95.2077 66.72L100.288 67.96C100.101 68.68 99.941 69.3067 99.8077 69.84C99.701 70.3733 99.6077 70.84 99.5277 71.24C99.4743 71.6133 99.4477 71.92 99.4477 72.16C99.4477 72.6667 99.5677 73.12 99.8077 73.52C100.048 73.8933 100.514 74.2 101.208 74.44C101.901 74.6533 102.914 74.8267 104.248 74.96C105.608 75.0667 107.381 75.12 109.568 75.12C111.888 75.12 113.821 75.04 115.368 74.88C116.914 74.6933 118.141 74.44 119.048 74.12C119.981 73.7733 120.648 73.36 121.048 72.88C121.448 72.3733 121.648 71.8 121.648 71.16C121.648 70.6533 121.528 70.1867 121.288 69.76C121.074 69.3067 120.714 68.9333 120.208 68.64C119.701 68.3467 119.048 68.2 118.248 68.2C117.288 68.2 116.314 68.44 115.328 68.92C114.368 69.3733 113.421 69.9867 112.488 70.76C111.554 71.5067 110.661 72.3467 109.808 73.28C108.981 74.2133 108.234 75.1467 107.568 76.08L101.568 75.4C102.608 73.72 103.781 72.1067 105.088 70.56C106.394 69.0133 107.794 67.6533 109.288 66.48C110.781 65.28 112.328 64.3333 113.928 63.64C115.528 62.9467 117.154 62.6 118.808 62.6C120.594 62.6 122.114 62.9467 123.368 63.64C124.621 64.3333 125.581 65.2933 126.248 66.52C126.914 67.7467 127.248 69.16 127.248 70.76C127.248 72.7067 126.688 74.4267 125.568 75.92C124.474 77.4133 122.701 78.5867 120.248 79.44C117.821 80.2933 114.594 80.72 110.568 80.72ZM117.648 58.88C116.821 58.88 116.114 58.6 115.528 58.04C114.968 57.48 114.688 56.7867 114.688 55.96C114.688 55.1333 114.968 54.4267 115.528 53.84C116.114 53.2533 116.821 52.96 117.648 52.96C118.448 52.96 119.128 53.2533 119.688 53.84C120.274 54.4267 120.568 55.1333 120.568 55.96C120.568 56.7867 120.274 57.48 119.688 58.04C119.128 58.6 118.448 58.88 117.648 58.88ZM130.004 80.2L130.404 74.6C131.844 74.6 133.271 74.52 134.684 74.36C136.097 74.2 137.471 73.96 138.804 73.64C140.137 73.32 141.404 72.9067 142.604 72.4C143.831 71.8933 144.977 71.28 146.044 70.56C145.244 70.08 144.377 69.6667 143.444 69.32C142.511 68.9733 141.511 68.72 140.444 68.56C139.404 68.3733 138.297 68.28 137.124 68.28C136.697 68.28 136.244 68.2933 135.764 68.32C135.311 68.3467 134.844 68.4 134.364 68.48C133.884 68.5333 133.404 68.6133 132.924 68.72L132.124 63.24C132.897 63.0267 133.711 62.88 134.564 62.8C135.444 62.6933 136.217 62.64 136.884 62.64C138.324 62.64 139.644 62.8 140.844 63.12C142.071 63.44 143.191 63.84 144.204 64.32C145.244 64.8 146.204 65.28 147.084 65.76C147.991 66.24 148.844 66.64 149.644 66.96C150.471 67.28 151.271 67.44 152.044 67.44H153.524L154.164 72.76C153.017 72.8133 151.937 73.04 150.924 73.44C149.937 73.8133 148.951 74.2933 147.964 74.88C147.004 75.44 145.964 76.0267 144.844 76.64C143.751 77.2533 142.511 77.8267 141.124 78.36C139.737 78.8933 138.137 79.3333 136.324 79.68C134.511 80.0267 132.404 80.2 130.004 80.2ZM136.924 58.92C136.097 58.92 135.391 58.64 134.804 58.08C134.244 57.52 133.964 56.8267 133.964 56C133.964 55.1733 134.244 54.4667 134.804 53.88C135.391 53.2933 136.097 53 136.924 53C137.724 53 138.404 53.2933 138.964 53.88C139.551 54.4667 139.844 55.1733 139.844 56C139.844 56.8267 139.551 57.52 138.964 58.08C138.404 58.64 137.724 58.92 136.924 58.92ZM165.566 89.24L163.526 84.28C164.939 83.8 166.232 83.24 167.406 82.6C168.606 81.96 169.646 81.2533 170.526 80.48C171.406 79.7067 172.086 78.8667 172.566 77.96C173.046 77.0267 173.286 76.0267 173.286 74.96C173.286 73.84 173.032 72.6133 172.526 71.28C172.019 69.9467 171.406 68.5867 170.686 67.2L175.926 64.68C176.406 65.5067 176.819 66.4 177.166 67.36C177.539 68.2933 177.846 69.1333 178.086 69.88C178.326 70.6267 178.486 71.1333 178.566 71.4C178.939 72.68 179.446 73.5333 180.086 73.96C180.752 74.3867 181.819 74.6 183.286 74.6C184.299 74.6 185.019 74.8667 185.446 75.4C185.899 75.9067 186.126 76.5467 186.126 77.32C186.126 78.1467 185.846 78.84 185.286 79.4C184.726 79.9333 183.926 80.2 182.886 80.2C181.792 80.2 180.832 80.04 180.006 79.72C179.179 79.4 178.512 78.9333 178.006 78.32C177.526 77.7067 177.219 76.9867 177.086 76.16L178.566 77C178.406 78.4133 177.939 79.7467 177.166 81C176.419 82.28 175.446 83.4533 174.246 84.52C173.046 85.5867 171.699 86.52 170.206 87.32C168.712 88.12 167.166 88.76 165.566 89.24ZM182.934 80.2L183.334 74.6C184 74.6 184.507 74.4667 184.854 74.2C185.2 73.9333 185.547 73.4667 185.894 72.8C186.24 72.1333 186.72 71.2267 187.334 70.08C188 68.8 188.694 67.7333 189.414 66.88C190.134 66 190.854 65.3067 191.574 64.8C192.32 64.2667 193.054 63.8933 193.774 63.68C194.52 63.44 195.254 63.32 195.974 63.32C196.96 63.32 197.88 63.5333 198.734 63.96C199.614 64.36 200.454 65.0667 201.254 66.08C202.054 67.0667 202.814 68.4267 203.534 70.16C204.04 71.36 204.547 72.28 205.054 72.92C205.56 73.56 206.08 74 206.614 74.24C207.174 74.48 207.734 74.6 208.294 74.6C209.307 74.6 210.027 74.8667 210.454 75.4C210.88 75.9067 211.094 76.5467 211.094 77.32C211.094 78.1467 210.814 78.84 210.254 79.4C209.694 79.9333 208.907 80.2 207.894 80.2C206.587 80.2 205.4 79.9867 204.334 79.56C203.267 79.1333 202.427 78.4933 201.814 77.64L202.974 76.76C202.734 77.32 202.374 77.9067 201.894 78.52C201.44 79.1333 200.84 79.6533 200.094 80.08C199.374 80.5067 198.507 80.72 197.494 80.72C196.827 80.72 196.04 80.5867 195.134 80.32C194.254 80.08 193.334 79.6667 192.374 79.08C191.44 78.4667 190.574 77.64 189.774 76.6C189.267 77.5333 188.707 78.2667 188.094 78.8C187.48 79.3067 186.76 79.6667 185.934 79.88C185.107 80.0933 184.107 80.2 182.934 80.2ZM192.094 71.88C192.36 72.28 192.68 72.68 193.054 73.08C193.427 73.48 193.84 73.84 194.294 74.16C194.747 74.4533 195.227 74.6933 195.734 74.88C196.267 75.0667 196.787 75.16 197.294 75.16C197.827 75.16 198.267 74.96 198.614 74.56C198.96 74.1333 198.974 73.5067 198.654 72.68C198.52 72.3333 198.334 71.9467 198.094 71.52C197.88 71.0667 197.627 70.64 197.334 70.24C197.067 69.84 196.76 69.5067 196.414 69.24C196.094 68.9733 195.76 68.84 195.414 68.84C195.067 68.84 194.707 68.9467 194.334 69.16C193.96 69.3733 193.587 69.7067 193.214 70.16C192.84 70.5867 192.467 71.16 192.094 71.88ZM207.895 80.2L208.295 74.6C209.548 74.6 210.508 74.5867 211.175 74.56C211.868 74.5333 212.388 74.5067 212.735 74.48C213.081 74.4267 213.375 74.3867 213.615 74.36C213.348 74.0933 213.001 73.7067 212.575 73.2C212.148 72.6933 211.761 72.04 211.415 71.24C211.095 70.44 210.935 69.48 210.935 68.36C210.935 66.7333 211.348 65.3067 212.175 64.08C213.028 62.8533 214.175 61.8933 215.615 61.2C217.055 60.5067 218.668 60.16 220.455 60.16C221.308 60.16 222.095 60.2133 222.815 60.32C223.561 60.4267 224.308 60.5867 225.055 60.8L224.175 66.12C223.641 65.9867 223.081 65.88 222.495 65.8C221.908 65.72 221.388 65.68 220.935 65.68C220.055 65.68 219.281 65.8267 218.615 66.12C217.975 66.3867 217.468 66.7733 217.095 67.28C216.748 67.76 216.575 68.3467 216.575 69.04C216.575 69.4933 216.655 69.92 216.815 70.32C217.001 70.72 217.228 71.08 217.495 71.4C217.761 71.72 218.055 72 218.375 72.24C218.695 72.48 219.001 72.68 219.295 72.84C219.615 72.9733 219.881 73.0667 220.095 73.12C220.761 72.9333 221.335 72.7733 221.815 72.64C222.321 72.48 222.801 72.3333 223.255 72.2C223.735 72.04 224.255 71.84 224.815 71.6C225.375 71.36 226.068 71.0667 226.895 70.72L228.695 76C226.455 77.0933 224.268 77.9467 222.135 78.56C220.001 79.1733 217.788 79.6 215.495 79.84C213.201 80.08 210.668 80.2 207.895 80.2Z" fill="url(#paint1_linear_5_33)"/>
<defs>
<linearGradient id="paint0_linear_5_33" x1="6.5" y1="32.6796" x2="296.5" y2="32.6796" gradientUnits="userSpaceOnUse">
<stop stop-color="#028652"/>
<stop offset="1" stop-color="#1A87AC"/>
</linearGradient>
<linearGradient id="paint1_linear_5_33" x1="26.596" y1="69.6796" x2="276.265" y2="69.6796" gradientUnits="userSpaceOnUse">
<stop stop-color="#028652"/>
<stop offset="1" stop-color="#1A87AC"/>
</linearGradient>
</defs>
</svg>
